<svg width="31" height="26" viewBox="0 0 31 26" fill="none" xmlns="http://www.w3.org/2000/svg">
<path d="M29.8719 1.46716L30.9911 0.518909L29.0508 22.7145L28.0068 22.6231L29.8719 1.46716Z" fill="black"/>
<path d="M29.0651 22.3533C29.0651 24.0912 27.6574 25.5 25.921 25.5C24.1846 25.5 22.777 24.0912 22.777 22.3533C22.777 20.6154 24.1846 19.2066 25.921 19.2066C27.6574 19.2066 29.0651 20.6154 29.0651 22.3533Z" fill="black"/>
<path d="M18.2423 3.42178L19.3531 2.56964L17.5925 22.7107L16.5485 22.6193L18.2423 3.42178Z" fill="black"/>
<path d="M17.6067 22.3495C17.6067 24.0874 16.1991 25.4962 14.4627 25.4962C12.7263 25.4962 11.3186 24.0874 11.3186 22.3495C11.3186 20.6116 12.7263 19.2028 14.4627 19.2028C16.1991 19.2028 17.6067 20.6116 17.6067 22.3495Z" fill="black"/>
<path d="M6.84896 4.10088L7.89299 4.1923L6.27387 22.7145L5.22983 22.6231L6.84896 4.10088Z" fill="black"/>
<path d="M6.28812 22.3533C6.28812 24.0912 4.88047 25.5 3.14406 25.5C1.40764 25.5 0 24.0912 0 22.3533C0 20.6154 1.40764 19.2066 3.14406 19.2066C4.88047 19.2066 6.28812 20.6154 6.28812 22.3533Z" fill="black"/>
<path d="M7.24782 7.12024L6.79648 3.68913L31 0.5L30.3862 3.91412L7.24782 7.12024Z" fill="black"/>
</svg>
