<svg width="27" height="26" viewBox="0 0 27 26" fill="none" xmlns="http://www.w3.org/2000/svg">
<path d="M25.8065 1.67337L26.9753 0.745688L25.0584 22.5886L23.9629 22.493L25.8065 1.67337Z" fill="black"/>
<path d="M25.0733 22.211C25.0733 24.0275 23.5963 25.5 21.7742 25.5C19.9522 25.5 18.4751 24.0275 18.4751 22.211C18.4751 20.3946 19.9522 18.9221 21.7742 18.9221C23.5963 18.9221 25.0733 20.3946 25.0733 22.211Z" fill="black"/>
<path d="M7.18676 3.13346L8.28228 3.22901L6.5833 22.5886L5.48777 22.4931L7.18676 3.13346Z" fill="black"/>
<path d="M6.59825 22.211C6.59825 24.0275 5.12118 25.5 3.29912 25.5C1.47707 25.5 0 24.0275 0 22.211C0 20.3946 1.47707 18.9221 3.29912 18.9221C5.12118 18.9221 6.59825 20.3946 6.59825 22.211Z" fill="black"/>
<path d="M7.55277 5.89162L7.18421 3.10075L27 0.5L26.4965 3.27734L7.55277 5.89162Z" fill="black"/>
<path d="M7.26007 10.5229L6.8915 7.73204L26.3542 5.17762L25.866 7.95296L7.26007 10.5229Z" fill="black"/>
<path d="M6.96681 15.0653L6.59825 12.2745L26.1447 9.70907L25.6528 12.4849L6.96681 15.0653Z" fill="black"/>
</svg>
