<svg width="20" height="20" viewBox="0 0 20 20" fill="none" xmlns="http://www.w3.org/2000/svg">
<path d="M10.2525 6.32953V1.5M10.2525 18.5L10.245 12.639M18.9734 9.20917C18.5948 11.7743 14.2703 13.2719 9.31445 12.5542C4.35857 11.8365 0.647963 9.17524 1.02658 6.61012C1.4052 4.045 5.72967 2.54737 10.6855 3.26508C15.6414 3.98279 19.352 6.64405 18.9734 9.20917ZM13.1745 6.96245C13.038 7.88699 11.5506 8.43708 9.85219 8.19112C8.15379 7.94516 6.8876 6.99628 7.02406 6.07175C7.16053 5.14721 8.64797 4.59711 10.3464 4.84307C12.0448 5.08903 13.311 6.03791 13.1745 6.96245Z" stroke="black" stroke-width="1.25" stroke-linecap="round"/>
</svg>
