<svg width="19" height="20" viewBox="0 0 19 20" fill="none" xmlns="http://www.w3.org/2000/svg">
<path d="M18 15.3045C18 15.7801 17.7865 16.2552 17.3633 16.7029C16.9399 17.1508 16.3167 17.5604 15.5267 17.9067C14.737 18.2527 13.7983 18.5278 12.7639 18.7155C11.7295 18.9033 10.6205 19 9.50032 19C8.38012 19 7.27113 18.9033 6.23679 18.7155C5.20235 18.5278 4.26362 18.2527 3.47395 17.9067C2.68396 17.5604 2.06072 17.1508 1.6373 16.7029C1.21419 16.2552 1.00065 15.7801 1.00065 15.3045M15.1732 7.45383L15.1732 18.0629M9.14026 8.37328L9.14026 18.9823M3.31398 7.24165L3.31398 17.8507M1 4.69548L1 15.3045M17.983 4.69548V15.3045M1.03686 4.3595C1.13778 3.88434 1.45237 3.41753 1.97055 2.98706C2.48864 2.55667 3.19737 2.17343 4.05784 1.8605C4.91806 1.54766 5.91142 1.31181 6.98131 1.16681C8.05113 1.02181 9.17587 0.970583 10.2912 1.0161C11.4065 1.06162 12.49 1.20297 13.4798 1.43191C14.4697 1.66088 15.3455 1.97275 16.0577 2.34902C16.7702 2.72547 17.3024 3.15767 17.6278 3.61899C17.9524 4.07928 18.0648 4.55904 17.9641 5.03288C17.8632 5.50804 17.5486 5.97485 17.0304 6.40532C16.5123 6.83571 15.8036 7.21894 14.9431 7.53188C14.0829 7.84472 13.0896 8.08056 12.0197 8.22557C10.9498 8.37056 9.82511 8.42179 8.70982 8.37628C7.59451 8.33076 6.51099 8.1894 5.52119 7.96046C4.53127 7.73149 3.65546 7.41962 2.94331 7.04336C2.23079 6.6669 1.6986 6.23471 1.3732 5.77338C1.04854 5.31309 0.936215 4.83334 1.03686 4.3595Z" stroke="black" stroke-width="1.25"/>
</svg>
