<svg width="20" height="18" viewBox="0 0 20 18" fill="none" xmlns="http://www.w3.org/2000/svg">
<path d="M16.203 15.121C16.0226 15.5943 15.6523 15.9995 15.1083 16.3119C14.5638 16.6247 13.8569 16.8377 13.0262 16.9367C12.1957 17.0357 11.2597 17.0185 10.2715 16.8855C9.28346 16.7525 8.26347 16.5065 7.26997 16.1612C6.27646 15.816 5.32942 15.3786 4.48299 14.8741C3.63647 14.3696 2.90789 13.8084 2.33834 13.2229C1.76862 12.6373 1.37053 12.0403 1.16399 11.4666C0.957606 10.8933 0.946788 10.3558 1.12722 9.8825M15.3394 9.97649L12.6693 16.9803M9.63692 9.02608L6.96678 16.0299M4.89214 6.10831L2.22201 13.1121M3.79886 2.87309L1.12872 9.87687M18.8751 8.11173L16.2049 15.1155M3.957 2.55585C4.22694 2.11487 4.68313 1.74971 5.30456 1.48373C5.92611 1.21771 6.6988 1.05705 7.57961 1.01264C8.4602 0.968247 9.42996 1.04101 10.4335 1.22725C11.4369 1.41349 12.4537 1.70941 13.4257 2.09815C14.3977 2.4869 15.3053 2.96064 16.0966 3.49208C16.8881 4.02359 17.5469 4.60183 18.0363 5.19324C18.5259 5.78482 18.8349 6.37624 18.9496 6.93337C19.0641 7.48963 18.9828 8.00128 18.7133 8.44163C18.4433 8.8826 17.9871 9.24776 17.3657 9.51374C16.7442 9.77977 15.9715 9.94042 15.0907 9.98483C14.2101 10.0292 13.2403 9.95646 12.2368 9.77022C11.2334 9.58398 10.2165 9.28806 9.24457 8.89932C8.27258 8.51057 7.365 8.03683 6.57365 7.50539C5.7822 6.97388 5.12336 6.39564 4.63395 5.80423C4.14439 5.21265 3.83537 4.62123 3.72069 4.0641C3.6062 3.50784 3.68745 2.99619 3.957 2.55585Z" stroke="black" stroke-width="1.25"/>
</svg>
