<svg width="9" height="26" viewBox="0 0 9 26" fill="none" xmlns="http://www.w3.org/2000/svg">
<path d="M5.41071 0.5L6.21123 0.566095L4.81051 15.6755L4.01 15.6094L5.41071 0.5Z" fill="#090909"/>
<path d="M4.38983 23.4066L6.21126 23.4572L3.32783 24.4786L0.444409 25.5L0.169572 24.7874L4.38983 23.4066Z" fill="#090909"/>
<path d="M6.21126 23.4572L4.71126 23.7099L2.43448 22.954L0.157699 22.198L0.432537 21.4854L6.21126 23.4572Z" fill="#090909"/>
<path d="M4.82143 15.4143C4.82143 16.6708 3.74211 17.6894 2.41071 17.6894C1.07931 17.6894 0 16.6708 0 15.4143C0 14.1579 1.07931 13.1393 2.41071 13.1393C3.74211 13.1393 4.82143 14.1579 4.82143 15.4143Z" fill="black"/>
<path d="M7.16794 13.5437C9.80565 8.93022 9.80564 8.77113 5.77967 1.61226L5.57143 4.87352C9.20779 7.75696 8.07031 10.7597 7.16794 13.5437Z" fill="#090909"/>
</svg>
