<svg width="13" height="26" viewBox="0 0 13 26" fill="none" xmlns="http://www.w3.org/2000/svg">
<path d="M7.475 0.5L8.59572 0.598371L6.65949 22.8019L5.53877 22.7036L7.475 0.5Z" fill="#090909"/>
<path d="M4.4 16.2263C4.4 16.8496 3.89632 17.355 3.275 17.355C2.65368 17.355 2.15 16.8496 2.15 16.2263C2.15 15.6029 2.65368 15.0976 3.275 15.0976C3.89632 15.0976 4.4 15.6029 4.4 16.2263Z" fill="#090909"/>
<path d="M9.93511 19.9133C13.6279 13.0469 13.6279 12.8101 7.99154 2.1554L7.7 7.00923C12.7909 11.3007 11.1984 15.7698 9.93511 19.9133Z" fill="#090909"/>
<path d="M5.27297 19.9133L6.06847 20.7114L1.2955 25.5L0.500003 24.7019L5.27297 19.9133Z" fill="#090909"/>
<path d="M0.5 20.7114L1.2955 19.9133L6.06847 24.7019L5.27297 25.5L0.5 20.7114Z" fill="#090909"/>
</svg>
