<svg width="23" height="26" viewBox="0 0 23 26" fill="none" xmlns="http://www.w3.org/2000/svg">
<path d="M17.5867 0.5L18.6825 0.596128L16.7651 22.571L15.6692 22.4749L17.5867 0.5Z" fill="black"/>
<path d="M16.78 22.1912C16.78 24.0186 15.3025 25.5 13.48 25.5C11.6575 25.5 10.18 24.0186 10.18 22.1912C10.18 20.3638 11.6575 18.8824 13.48 18.8824C15.3025 18.8824 16.78 20.3638 16.78 22.1912Z" fill="black"/>
<path d="M19.9921 19.4706C23.6028 12.7608 23.6028 12.5294 18.0917 2.11765L17.8067 6.86078C22.7844 11.0544 21.2274 15.4216 19.9921 19.4706Z" fill="black"/>
<path d="M4.90875 9.02941L5.56102 9.08663L4.41969 22.167L3.76742 22.1097L4.90875 9.02941Z" fill="black"/>
<path d="M9.79442 11.9706L10.0964 12.5531L1.38864 17.0909L1.08669 16.5084L9.79442 11.9706Z" fill="black"/>
<path d="M4.42858 21.9409C4.42858 23.0286 3.54914 23.9104 2.46429 23.9104C1.37944 23.9104 0.5 23.0286 0.5 21.9409C0.5 20.8531 1.37944 19.9713 2.46429 19.9713C3.54914 19.9713 4.42858 20.8531 4.42858 21.9409Z" fill="black"/>
<path d="M6.34053 20.3215C8.48978 16.3275 8.48978 16.1898 5.20935 9.9923L5.03967 12.8156C8.00264 15.3118 7.0758 17.9113 6.34053 20.3215Z" fill="black"/>
</svg>
