<svg width="15" height="26" viewBox="0 0 15 26" fill="none" xmlns="http://www.w3.org/2000/svg">
<path d="M10.5134 0.5L11.514 0.590258L9.76314 21.2233L8.7625 21.133L10.5134 0.5Z" fill="#090909"/>
<path d="M9.77679 20.8666C9.77679 22.5825 8.42764 23.9734 6.76339 23.9734C5.09914 23.9734 3.75 22.5825 3.75 20.8666C3.75 19.1508 5.09914 17.7599 6.76339 17.7599C8.42764 17.7599 9.77679 19.1508 9.77679 20.8666Z" fill="black"/>
<path d="M12.7099 18.3122C16.0071 12.0121 16.0071 11.7949 10.9746 2.01887L10.7143 6.47237C15.2597 10.4099 13.8379 14.5104 12.7099 18.3122Z" fill="#090909"/>
<path d="M2.41182 16.1841C1.65934 16.6947 1.0439 17.3928 0.62244 18.2136C0.200979 19.0345 -0.0128944 19.9517 0.000601308 20.8803C0.014097 21.809 0.254526 22.7192 0.69965 23.5267C1.14477 24.3341 1.78022 25.0128 2.54721 25.5L3.10832 24.561C2.49449 24.1711 1.98594 23.6279 1.62971 22.9817C1.27347 22.3355 1.08105 21.607 1.07025 20.8638C1.05945 20.1206 1.23061 19.3866 1.56791 18.7296C1.90521 18.0727 2.39775 17.514 2.99998 17.1054L2.41182 16.1841Z" fill="black"/>
<path d="M11.036 25.4841C11.7813 24.9988 12.3992 24.3274 12.8338 23.5305C13.2684 22.7336 13.5061 21.8362 13.5255 20.9194C13.5449 20.0025 13.3453 19.0951 12.9447 18.279C12.5442 17.4628 11.9553 16.7636 11.2312 16.2445L10.6593 17.114C11.2451 17.534 11.7215 18.0997 12.0456 18.76C12.3697 19.4202 12.5311 20.1544 12.5155 20.8961C12.4998 21.6379 12.3075 22.3639 11.9559 23.0086C11.6042 23.6533 11.1044 24.1965 10.5014 24.5891L11.036 25.4841Z" fill="black"/>
</svg>
