<svg width="13" height="26" viewBox="0 0 13 26" fill="none" xmlns="http://www.w3.org/2000/svg">
<path d="M7.71429 0.5L8.78164 0.596128L6.92857 22.1912L6.90702 21.8059L6.84892 21.4559L6.74567 21.0882L6.59446 20.7206L6.3873 20.3529L6.14286 20.0235L7.71429 0.5Z" fill="#090909"/>
<path d="M10.0573 19.4706C13.5742 12.7608 13.5742 12.5294 8.20623 2.11765L7.92857 6.86078C12.7771 11.0544 11.2604 15.4216 10.0573 19.4706Z" fill="#090909"/>
<path d="M3.71387 19.3828C4.52893 19.3828 5.26569 19.758 5.76562 20.3545L5.9707 20.6309L6.12988 20.9141C6.27563 21.2086 6.37329 21.5328 6.41016 21.8779L6.42773 22.1963C6.42506 23.7589 5.19774 25 3.71387 25C2.22863 24.9998 1.00012 23.7562 1 22.1914C1 20.6265 2.22856 19.383 3.71387 19.3828ZM8.93652 4.63965C9.70729 6.15489 10.3241 7.40504 10.7969 8.47949C11.4894 10.0534 11.8591 11.2121 11.9668 12.2344C12.0563 13.0851 11.9649 13.8596 11.7002 14.7256C11.7543 14.2206 11.7801 13.7123 11.7617 13.2021C11.6854 11.0865 10.8961 8.97038 8.74023 6.92285L8.93652 4.63965ZM7.70117 7.3291L7.12988 13.9961L7.66797 7.2998C7.67909 7.30955 7.69012 7.31935 7.70117 7.3291ZM8.24023 1.04883L8.2373 1.08691L8.21582 1.04688L8.24023 1.04883Z" stroke="black"/>
</svg>
