<svg width="13" height="26" viewBox="0 0 13 26" fill="none" xmlns="http://www.w3.org/2000/svg">
<path d="M8.46355 0.5L9.47531 0.591309L7.70496 21.4647L6.6932 21.3734L8.46355 0.5Z" fill="black"/>
<path d="M0 16.6064L0.718154 15.8656L9.33981 24.7592L8.62166 25.5L0 16.6064Z" fill="black"/>
<path d="M7.71875 21.1039C7.71875 22.8397 6.35462 24.2469 4.67188 24.2469C2.98914 24.2469 1.62501 22.8397 1.62501 21.1039C1.62501 19.3681 2.98914 17.9609 4.67188 17.9609C6.35462 17.9609 7.71875 19.3681 7.71875 21.1039Z" fill="black"/>
<path d="M10.6845 18.5197C14.0182 12.1462 14.0182 11.9264 8.92986 2.03656L8.66667 6.54195C13.2626 10.5254 11.825 14.6736 10.6845 18.5197Z" fill="black"/>
</svg>
