<svg width="18" height="22" viewBox="0 0 18 22" fill="none" xmlns="http://www.w3.org/2000/svg">
<path d="M16.6321 8.52423C16.9961 9.12336 17.0443 9.71586 16.8404 10.331C16.6358 10.9478 16.1481 11.5363 15.4097 12.0468C14.6716 12.5571 13.7066 12.9732 12.5916 13.2601C11.4768 13.547 10.2448 13.6964 8.99503 13.696C7.74526 13.6956 6.51359 13.5454 5.39951 13.2579C4.28523 12.9702 3.32125 12.5535 2.5844 12.0427C1.8473 11.5317 1.36105 10.943 1.15803 10.3261C0.955551 9.71085 1.01287 9.13996 1.37832 8.54102M9.08368 6.42676V1M9.08368 21V13.6958M17 7.29763C17 9.55087 13.4183 11.3775 9 11.3775C4.58172 11.3775 1 9.55087 1 7.29763C1 5.0444 4.58172 3.21779 9 3.21779C13.4183 3.21779 17 5.0444 17 7.29763ZM12.541 6.50798C12.541 7.45289 11.0143 8.21889 9.13115 8.21889C7.24795 8.21889 5.72131 7.45289 5.72131 6.50798C5.72131 5.56308 7.24795 4.79708 9.13115 4.79708C11.0143 4.79708 12.541 5.56308 12.541 6.50798Z" stroke="black" stroke-width="1.25" stroke-linecap="round"/>
</svg>
