<svg width="20" height="20" viewBox="0 0 20 20" fill="none" xmlns="http://www.w3.org/2000/svg">
<path d="M14.3052 1.5V0.875V1.5ZM15.8957 2.13794L15.4955 2.61804L15.8957 2.13794ZM17.2604 3.974L17.82 3.69585L17.2604 3.974ZM18.1774 6.73632L17.5653 6.86234L18.1774 6.73632ZM18.1774 13.2637L17.5653 13.1377L18.1774 13.2637ZM17.2604 16.026L16.7007 15.7479L17.2604 16.026ZM15.8957 17.8621L15.4955 17.382L15.8957 17.8621ZM14.3052 18.5L14.3052 17.875H14.3052V18.5ZM2.67386 11.4694L2.05121 11.5236L2.67386 11.4694ZM3.18059 5.72786L2.57996 5.55502L3.18059 5.72786ZM5.38914 2.00209L5.75765 2.50689L5.38914 2.00209ZM6.80964 1.5L6.81073 0.875004L6.80964 1.5ZM8.22977 2.00709L8.59959 1.50324L8.22977 2.00709ZM10.4352 5.74066L9.83437 5.91286L10.4352 5.74066ZM10.937 11.484L10.3144 11.4293L10.937 11.484ZM9.48961 16.527L8.95194 16.2084L9.48961 16.527ZM1.5 18.5L1.33363 17.8976C1.03218 17.9808 0.838659 18.274 0.880663 18.5839C0.922667 18.8938 1.18726 19.125 1.5 19.125V18.5ZM6.51771 17.1144L6.68408 17.7168C6.98449 17.6338 7.17788 17.3422 7.13742 17.0332L6.51771 17.1144ZM6.61558 13.0474C6.57077 12.7051 6.25699 12.464 5.91473 12.5088C5.57248 12.5536 5.33135 12.8674 5.37616 13.2096L6.61558 13.0474ZM14.3052 2.125C14.6733 2.125 15.0765 2.26882 15.4955 2.61804L16.2958 1.65784C15.6996 1.16086 15.0221 0.875 14.3052 0.875V2.125ZM15.4955 2.61804C15.9192 2.9712 16.3351 3.51649 16.7007 4.25215L17.82 3.69585C17.4008 2.85231 16.8882 2.15157 16.2958 1.65784L15.4955 2.61804ZM16.7007 4.25215C17.0649 4.98501 17.3611 5.87079 17.5653 6.86234L18.7896 6.61031C18.5678 5.53302 18.2404 4.54174 17.82 3.69585L16.7007 4.25215ZM17.5653 6.86234C17.7691 7.85279 17.875 8.91949 17.875 10L19.125 10C19.125 8.83989 19.0115 7.6885 18.7896 6.61031L17.5653 6.86234ZM17.875 10C17.875 11.0805 17.7691 12.1472 17.5653 13.1377L18.7896 13.3897C19.0115 12.3115 19.125 11.1601 19.125 10L17.875 10ZM17.5653 13.1377C17.3611 14.1292 17.0649 15.015 16.7007 15.7479L17.82 16.3041C18.2404 15.4583 18.5678 14.467 18.7896 13.3897L17.5653 13.1377ZM16.7007 15.7479C16.3351 16.4835 15.9192 17.0288 15.4955 17.382L16.2958 18.3422C16.8882 17.8484 17.4008 17.1477 17.82 16.3041L16.7007 15.7479ZM15.4955 17.382C15.0765 17.7312 14.6733 17.875 14.3052 17.875L14.3052 19.125C15.0221 19.125 15.6995 18.8391 16.2958 18.3422L15.4955 17.382ZM4.65503 16.1997C3.95607 15.0161 3.4627 13.3264 3.29651 11.4153L2.05121 11.5236C2.2286 13.5636 2.75923 15.4477 3.5787 16.8353L4.65503 16.1997ZM3.29651 11.4153C3.13075 9.50903 3.30562 7.55348 3.78122 5.90069L2.57996 5.55502C2.058 7.36893 1.87347 9.47954 2.05121 11.5236L3.29651 11.4153ZM3.78122 5.90069C4.26216 4.22935 4.9921 3.06576 5.75765 2.50689L5.02062 1.4973C3.93661 2.28865 3.09748 3.75655 2.57996 5.55502L3.78122 5.90069ZM5.75765 2.50689C6.12907 2.23575 6.48292 2.12443 6.80855 2.125L6.81073 0.875004C6.17964 0.873902 5.57211 1.09469 5.02062 1.4973L5.75765 2.50689ZM6.80855 2.125C7.13424 2.12557 7.48835 2.23818 7.85996 2.51093L8.59959 1.50324C8.04881 1.09898 7.44176 0.876106 6.81073 0.875004L6.80855 2.125ZM7.85996 2.51093C8.62572 3.07299 9.35485 4.23975 9.83437 5.91286L11.036 5.56847C10.52 3.76825 9.68234 2.29795 8.59959 1.50324L7.85996 2.51093ZM9.83437 5.91286C10.3086 7.56749 10.4818 9.52371 10.3144 11.4293L11.5596 11.5387C11.7391 9.49525 11.5563 7.38405 11.036 5.56847L9.83437 5.91286ZM10.3144 11.4293C10.1465 13.3399 9.6517 15.0276 8.95194 16.2084L10.0273 16.8456C10.8481 15.4605 11.3804 13.5781 11.5596 11.5387L10.3144 11.4293ZM8.95194 16.2084C8.24238 17.4057 7.4577 17.8743 6.80605 17.8743V19.1243C8.09527 19.1243 9.21481 18.2166 10.0273 16.8456L8.95194 16.2084ZM6.78902 11.5658C6.78902 12.1034 6.37082 12.507 5.89408 12.507V13.757C7.09622 13.757 8.03902 12.7582 8.03902 11.5658H6.78902ZM5.89408 12.507C5.41734 12.507 4.99915 12.1034 4.99915 11.5658H3.74915C3.74915 12.7582 4.69195 13.757 5.89408 13.757V12.507ZM4.99915 11.5658C4.99915 11.0282 5.41734 10.6246 5.89408 10.6246V9.37464C4.69195 9.37464 3.74915 10.3734 3.74915 11.5658H4.99915ZM5.89408 10.6246C6.37082 10.6246 6.78902 11.0282 6.78902 11.5658H8.03902C8.03902 10.3734 7.09622 9.37464 5.89408 9.37464V10.6246ZM9.92975 4.93765L17.3961 4.93765V3.68765L9.92975 3.68765L9.92975 4.93765ZM10.9734 10.9766L18.4799 10.9766V9.72658L10.9734 9.72658V10.9766ZM9.6889 16.8087L17.1553 16.8087V15.5587L9.6889 15.5587V16.8087ZM1.5 19.125H14.3052V17.875H1.5V19.125ZM1.66637 19.1025L6.68408 17.7168L6.35134 16.5119L1.33363 17.8976L1.66637 19.1025ZM5.37616 13.2096L5.898 17.1955L7.13742 17.0332L6.61558 13.0474L5.37616 13.2096ZM6.7987 2.125H14.3052V0.875H6.7987V2.125Z" fill="black"/>
</svg>
