<svg width="24" height="20" viewBox="0 0 24 20" fill="none" xmlns="http://www.w3.org/2000/svg">
<path d="M11.6914 5.79292V1.5M11.7006 18.5L11.7006 11.4013M1.03249 8.3526C1.49524 10.6327 6.7807 11.9639 12.8379 11.326C18.8951 10.688 23.4303 8.32244 22.9675 6.04233C22.5048 3.76222 17.2193 2.431 11.1621 3.06896C5.10492 3.70692 0.569733 6.07249 1.03249 8.3526ZM7.91728 6.82199C8.08407 7.6438 9.90206 8.13278 11.9779 7.91415C14.0537 7.69552 15.6013 6.85207 15.4345 6.03026C15.2677 5.20844 13.4497 4.71947 11.3739 4.9381C9.29807 5.15673 7.7505 6.00018 7.91728 6.82199Z" stroke="black" stroke-width="1.25" stroke-linecap="round"/>
</svg>
