<svg width="22" height="18" viewBox="0 0 22 18" fill="none" xmlns="http://www.w3.org/2000/svg">
<path d="M12.458 6.03415C12.3653 6.03415 12.2901 5.95919 12.2901 5.86673C12.2901 5.77427 12.3653 5.69933 12.458 5.69933C12.5507 5.69934 12.6259 5.7743 12.6259 5.86676C12.6259 5.95922 12.5507 6.03416 12.458 6.03415Z" fill="#EEEEEE"/>
<path d="M20.3519 13.7851L20.8373 14.1788L20.3519 13.7851ZM18.4888 15.2079L18.2046 14.6513L18.4888 15.2079ZM15.6858 16.1639L15.5565 15.5524L15.6858 16.1639ZM9.06242 16.1634L9.19181 15.5519L9.06242 16.1634ZM6.25956 15.2069L5.97526 15.7635L6.25956 15.2069ZM4.39662 13.7838L3.91118 14.1775L4.39662 13.7838ZM4.16206 3.53915C3.92357 3.78869 3.93252 4.18432 4.18206 4.42281C4.4316 4.6613 4.82723 4.65234 5.06572 4.40281L4.16206 3.53915ZM9.19428 1.80927L9.31794 2.42192L9.19428 1.80927ZM15.4547 1.78947L15.574 1.17597L15.4547 1.78947ZM20.0888 3.92242L19.6439 4.36133L20.0888 3.92242ZM20.9606 5.45882L20.3465 5.57534L20.9606 5.45882ZM20.6848 7.04366L21.2326 7.34453L20.6848 7.04366ZM16.9493 9.58184L16.7598 8.98625L16.9493 9.58184ZM10.7988 10.1754L10.7398 10.7976L10.7988 10.1754ZM5.48082 8.49859L5.13092 9.01646L5.48082 8.49859ZM4.40204 5.58606C4.46396 5.24648 4.23888 4.921 3.8993 4.85907C3.55972 4.79715 3.23424 5.02223 3.17232 5.36181L4.40204 5.58606ZM12.3721 6.48581C12.714 6.53327 13.0296 6.29458 13.0771 5.95268C13.1245 5.61078 12.8858 5.29514 12.5439 5.24768L12.3721 6.48581ZM20.3744 12.1267C20.3744 12.5231 20.2234 12.9514 19.8666 13.3913L20.8373 14.1788C21.3392 13.5602 21.6243 12.8618 21.6244 12.1268L20.3744 12.1267ZM19.8666 13.3913C19.5059 13.8359 18.9509 14.2702 18.2046 14.6513L18.773 15.7645C19.6291 15.3274 20.3385 14.7936 20.8373 14.1788L19.8666 13.3913ZM18.2046 14.6513C17.4608 15.031 16.5621 15.3398 15.5565 15.5524L15.8151 16.7754C16.9087 16.5441 17.9148 16.2027 18.773 15.7645L18.2046 14.6513ZM15.5565 15.5524C14.5519 15.7648 13.47 15.8751 12.3741 15.875L12.374 17.125C13.5517 17.1251 14.7206 17.0068 15.8151 16.7754L15.5565 15.5524ZM12.3741 15.875C11.2783 15.8749 10.1964 15.7645 9.19181 15.5519L8.93303 16.7748C10.0275 17.0064 11.1963 17.1249 12.374 17.125L12.3741 15.875ZM9.19181 15.5519C8.18619 15.3391 7.28759 15.0302 6.54385 14.6503L5.97526 15.7635C6.83342 16.2019 7.83944 16.5434 8.93303 16.7748L9.19181 15.5519ZM6.54385 14.6503C5.79758 14.2692 5.24263 13.8348 4.88205 13.3902L3.91118 14.1775C4.40985 14.7924 5.11918 15.3263 5.97526 15.7635L6.54385 14.6503ZM4.88205 13.3902C4.52526 12.9502 4.37439 12.5218 4.37443 12.1255L3.12443 12.1254C3.12437 12.8603 3.40941 13.5588 3.91118 14.1775L4.88205 13.3902ZM5.06572 4.40281C5.88256 3.54813 7.37492 2.81411 9.31794 2.42192L9.07062 1.19663C6.99392 1.6158 5.22313 2.42894 4.16206 3.53915L5.06572 4.40281ZM9.31794 2.42192C11.246 2.03275 13.3969 2.02584 15.3353 2.40296L15.574 1.17597C13.4756 0.767725 11.1596 0.774978 9.07062 1.19663L9.31794 2.42192ZM15.3353 2.40296C17.2882 2.78288 18.8022 3.50806 19.6439 4.36133L20.5338 3.48352C19.4485 2.38324 17.6607 1.58192 15.574 1.17597L15.3353 2.40296ZM19.6439 4.36133C20.0579 4.78106 20.2744 5.1953 20.3465 5.57534L21.5746 5.34231C21.4467 4.66803 21.082 4.03931 20.5338 3.48352L19.6439 4.36133ZM20.3465 5.57534C20.4173 5.94815 20.3592 6.33826 20.137 6.74278L21.2326 7.34453C21.5833 6.7061 21.7037 6.02251 21.5746 5.34231L20.3465 5.57534ZM20.137 6.74278C19.6744 7.58513 18.5269 8.42417 16.7598 8.98625L17.1387 10.1774C19.0394 9.57286 20.5463 8.59411 21.2326 7.34453L20.137 6.74278ZM16.7598 8.98625C15.0166 9.54075 12.9077 9.74733 10.8577 9.55322L10.7398 10.7976C12.9391 11.0059 15.2186 10.7882 17.1387 10.1774L16.7598 8.98625ZM10.8577 9.55322C8.80107 9.35848 7.01502 8.78089 5.83073 7.98072L5.13092 9.01646C6.53955 9.96821 8.54598 10.5899 10.7398 10.7976L10.8577 9.55322ZM5.83073 7.98072C4.6412 7.17701 4.26961 6.31228 4.40204 5.58606L3.17232 5.36181C2.91504 6.77266 3.72657 8.06761 5.13092 9.01646L5.83073 7.98072ZM12.458 5.40915C12.7089 5.40917 12.9152 5.61244 12.9151 5.86678L11.6651 5.86668C11.6651 6.30594 12.0217 6.65912 12.4579 6.65915L12.458 5.40915ZM12.9151 5.86678C12.9151 6.12111 12.7088 6.32435 12.458 6.32433L12.4581 5.07433C12.0218 5.0743 11.6652 5.42743 11.6651 5.86668L12.9151 5.86678ZM12.458 6.32433C12.2071 6.32431 12.0009 6.12105 12.0009 5.86671L13.2509 5.86681C13.2509 5.42755 12.8943 5.07437 12.4581 5.07433L12.458 6.32433ZM12.0009 5.86671C12.0009 5.61237 12.2072 5.40914 12.458 5.40915L12.4579 6.65915C12.8942 6.65919 13.2508 6.30606 13.2509 5.86681L12.0009 5.86671ZM17.5207 9.13251L17.5202 15.4108L18.7702 15.4109L18.7707 9.13261L17.5207 9.13251ZM11.3929 10.2203L11.3924 16.4986L12.6424 16.4987L12.6429 10.2204L11.3929 10.2203ZM5.47515 8.88043L5.47466 15.1588L6.72466 15.1589L6.72515 8.88053L5.47515 8.88043ZM3.12457 5.8667L3.12408 12.145L4.37408 12.1451L4.37457 5.8668L3.12457 5.8667ZM12.5439 5.24768L1.08593 3.65717L0.914066 4.89529L12.3721 6.48581L12.5439 5.24768ZM20.375 5.868L20.3745 12.1463L21.6245 12.1464L21.625 5.86809L20.375 5.868Z" fill="black"/>
</svg>
