<svg width="20" height="18" viewBox="0 0 20 18" fill="none" xmlns="http://www.w3.org/2000/svg">
<path d="M18.3798 9.88255C18.5503 10.3558 18.54 10.8934 18.3451 11.4666C18.15 12.0403 17.7741 12.6373 17.236 13.2229C16.6981 13.8084 16.01 14.3696 15.2105 14.8741C14.411 15.3786 13.5166 15.816 12.5783 16.1613C11.6399 16.5065 10.6766 16.7526 9.74341 16.8855C8.81014 17.0185 7.92611 17.0357 7.14174 16.9367C6.35714 16.8377 5.6895 16.6247 5.17526 16.312C4.66143 15.9995 4.31177 15.5943 4.14135 15.1211M14.4836 6.47156L17.0055 13.4753M9.75352 9.24293L12.2754 16.2467M4.46528 9.91949L6.98712 16.9232M1.61702 8.11208L4.13886 15.1158M15.8559 2.87339L18.3777 9.87713M1.5297 7.77202C1.44459 7.26857 1.54243 6.70889 1.82291 6.12379C2.10343 5.53859 2.56031 4.94134 3.16933 4.36681C3.77821 3.79242 4.5261 3.25305 5.37057 2.7799C6.21498 2.30679 7.13883 1.90949 8.08925 1.61082C9.03969 1.31214 9.99757 1.1181 10.9081 1.03959C11.8187 0.961061 12.663 0.999711 13.3932 1.15242C14.1236 1.30517 14.7232 1.56858 15.1605 1.925C15.597 2.28085 15.8636 2.72266 15.9486 3.22539C16.0337 3.72885 15.9359 4.28852 15.6554 4.87362C15.3749 5.45883 14.918 6.05607 14.309 6.6306C13.7001 7.205 12.9522 7.74437 12.1077 8.21751C11.2633 8.69062 10.3395 9.08792 9.38904 9.38659C8.43861 9.68527 7.48072 9.87931 6.57024 9.95783C5.65964 10.0364 4.81527 9.9977 4.08511 9.845C3.35473 9.69224 2.75507 9.42883 2.31783 9.07242C1.88126 8.71656 1.61469 8.27476 1.5297 7.77202Z" stroke="black" stroke-width="1.25"/>
</svg>
